<?xml version="1.0" encoding="UTF-8"?> <svg xmlns="http://www.w3.org/2000/svg" xmlns:xlink="http://www.w3.org/1999/xlink" width="350px" height="350px" viewBox="0 0 350 350" version="1.1"><title>Attendance-Welfare</title><g id="Attendance-Welfare" stroke="none" stroke-width="1" fill="none" fill-rule="evenodd"><rect id="Rectangle-Copy-8" x="0" y="1" width="350" height="350"></rect><g transform="translate(40.000000, 41.000000)" fill-rule="nonzero"><path d="M242.53057,184.370796 C242.53057,184.370796 232.288745,183.377387 218.616116,182.58266 C217.77911,224.7032 210.908303,251.617653 196.674604,258.770198 L196.674604,214.131481 C199.966648,213.731993 202.451512,210.93874 202.478458,207.607325 L202.478458,200.981518 C202.483544,197.283156 199.504891,194.28019 195.823802,194.272542 L181.203792,194.272542 C179.435296,194.272527 177.739632,194.980247 176.491708,196.239227 C175.243784,197.498207 174.546396,199.204741 174.553734,200.981518 L174.553734,207.607325 C174.570749,210.941717 177.061216,213.739287 180.357588,214.12686 L180.357588,258.765577 C166.100894,251.613033 159.248483,224.684718 158.40228,182.578039 C144.738848,183.345043 134.487826,184.366175 134.487826,184.366175 C119.317183,184.361068 107.012694,196.708798 107,211.950601 L107,246.909357 C107,262.157029 149.572327,269 189.431284,269 C229.290241,269 270,262.175511 270,246.909357 L270,211.955222 C270,204.634948 267.101964,197.61525 261.94733,192.441635 C256.792695,187.26802 249.802866,184.364666 242.516773,184.370796 M188.502299,184.093565 C207.964986,184.093565 237.945434,158.542162 237.945434,124.544472 C237.945434,91.7065299 215.769376,65 188.502299,65 C161.235223,65 139.059165,91.7065299 139.059165,124.544472 C139.059165,158.542162 169.035014,184.093565 188.502299,184.093565 M151.554468,111.260515 C152.842169,109.088877 154.267839,106.944962 155.633722,105.073656 C159.552013,99.6815248 162.752871,94.2339471 170.773411,105.073656 C178.301865,115.238771 206.691081,120.945098 226.843608,121.601209 C226.898795,122.594618 226.949384,123.583407 226.949384,124.544472 C226.949384,150.839777 203.324662,173.059795 188.488503,173.059795 C173.652343,173.059795 150.023023,150.835157 150.023023,124.544472 C150.053313,120.073841 150.566806,115.619738 151.554468,111.260515" id="Shape" fill="#004B27"></path><polygon id="Path" fill="#BB902C" points="72.5848278 152 55 139.207534 91.035788 103.63542 91.035788 46 114 46 114 111.145448"></polygon><path d="M183,40.598336 C159.183718,8.91363374 119.128835,-6.04736432 80.3727719,2.26578748 C25.4533363,14.0447713 -9.49539538,68.1180732 2.28362161,123.018863 C11.0475559,163.841436 43.8715408,195.160335 85.0603399,202 L100.801138,179.459056 C65.2850226,179.043681 34.5613561,154.62261 26.1430602,120.116196 C17.7247644,85.6097832 33.7503362,49.7836812 65.0849743,33.0592725 C96.4196124,16.3348638 135.103389,22.9606445 159.086007,49.1598265 L183,40.598336 Z" id="Path" fill="#BB902C"></path></g></g></svg> 